<?xml version="1.0" encoding="UTF-8" standalone="no"?>
<svg
   xmlns:dc="http://purl.org/dc/elements/1.1/"
   xmlns:cc="http://creativecommons.org/ns#"
   xmlns:rdf="http://www.w3.org/1999/02/22-rdf-syntax-ns#"
   xmlns:svg="http://www.w3.org/2000/svg"
   xmlns="http://www.w3.org/2000/svg"
   xmlns:sodipodi="http://sodipodi.sourceforge.net/DTD/sodipodi-0.dtd"
   xmlns:inkscape="http://www.inkscape.org/namespaces/inkscape"
   width="130mm"
   height="130mm"
   viewBox="0 0 130 130"
   version="1.1"
   id="svg1645"
   inkscape:version="1.0.2-2 (e86c870879, 2021-01-15)"
   sodipodi:docname="21.svg">
  <defs
     id="defs1639" />
  <sodipodi:namedview
     id="base"
     pagecolor="#ffffff"
     bordercolor="#666666"
     borderopacity="1.0"
     inkscape:pageopacity="0.0"
     inkscape:pageshadow="2"
     inkscape:zoom="1.5746204"
     inkscape:cx="199.90722"
     inkscape:cy="240.71683"
     inkscape:document-units="mm"
     inkscape:current-layer="layer1"
     inkscape:document-rotation="0"
     showgrid="false"
     inkscape:pagecheckerboard="true"
     inkscape:window-width="1920"
     inkscape:window-height="1001"
     inkscape:window-x="-9"
     inkscape:window-y="-9"
     inkscape:window-maximized="1" />
  <metadata
     id="metadata1642">
    <rdf:RDF>
      <cc:Work
         rdf:about="">
        <dc:format>image/svg+xml</dc:format>
        <dc:type
           rdf:resource="http://purl.org/dc/dcmitype/StillImage" />
        <dc:title />
      </cc:Work>
    </rdf:RDF>
  </metadata>
  <g
     inkscape:label="Calque 1"
     inkscape:groupmode="layer"
     id="layer1">
    <path
       id="path2208"
       style="fill:#ff6600;fill-rule:evenodd;stroke-width:0.264583"
       d="M 26.987158,83.200943 A 50,50 0 0 0 94.976636,102.62744 50,50 0 0 0 111.68762,87.547454 50,50 0 0 1 47.67692,66.136973 50,50 0 0 1 50.392185,13.22703 50,50 0 0 0 46.412954,15.211265 50,50 0 0 0 26.987158,83.200943 Z" />
    <path
       style="fill:#917c6f;stroke:#917c6f;stroke-width:0.63496064;stroke-opacity:1;stroke-miterlimit:4;stroke-dasharray:none"
       d="m 256.42878,411.16456 c -17.27202,-1.21862 -33.90701,-4.55456 -49.85605,-9.99801 -10.93155,-3.73096 -15.90647,-5.86312 -26.69094,-11.43925 -17.35167,-8.97171 -31.2406,-19.19484 -45.77704,-33.69476 C 102.12444,324.13257 83.466342,284.2094 79.193894,238.53852 78.16172,227.50497 78.777336,206.8422 80.472464,195.62412 89.04775,138.87433 121.97659,89.676578 170.82623,60.629927 c 7.24933,-4.310546 16.57809,-9.165052 17.61222,-9.165052 0.3442,0 -1.09017,2.643494 -3.1875,5.874431 -4.86328,7.491869 -12.31406,22.191282 -16.02885,31.622821 -19.51617,49.549813 -16.9905,105.830263 6.89982,153.751383 9.67892,19.41476 19.89949,33.57994 35.48689,49.183 13.27907,13.29241 26.5287,23.33091 42.27967,32.03291 41.51419,22.9355 91.66008,29.42332 137.63492,17.80705 7.84836,-1.98301 23.12533,-7.01916 26.34858,-8.68596 1.03883,-0.5372 2.03526,-0.83024 2.2143,-0.6512 0.17904,0.17904 -1.04365,2.12915 -2.71708,4.33358 -30.55235,40.24691 -77.03012,66.96502 -127.37105,73.22025 -7.884,0.97964 -27.05103,1.67132 -33.56937,1.21142 z"
       id="path2060"
       transform="scale(0.26458333)" />
  </g>
</svg>
