<?xml version="1.0" encoding="UTF-8" standalone="no"?>
<svg
   xmlns:dc="http://purl.org/dc/elements/1.1/"
   xmlns:cc="http://creativecommons.org/ns#"
   xmlns:rdf="http://www.w3.org/1999/02/22-rdf-syntax-ns#"
   xmlns:svg="http://www.w3.org/2000/svg"
   xmlns="http://www.w3.org/2000/svg"
   xmlns:sodipodi="http://sodipodi.sourceforge.net/DTD/sodipodi-0.dtd"
   xmlns:inkscape="http://www.inkscape.org/namespaces/inkscape"
   width="130mm"
   height="130mm"
   viewBox="0 0 130 130"
   version="1.1"
   id="svg2010"
   inkscape:version="1.0.2-2 (e86c870879, 2021-01-15)"
   sodipodi:docname="27.svg">
  <defs
     id="defs2004" />
  <sodipodi:namedview
     id="base"
     pagecolor="#ffffff"
     bordercolor="#666666"
     borderopacity="1.0"
     inkscape:pageopacity="0.0"
     inkscape:pageshadow="2"
     inkscape:zoom="1.6302404"
     inkscape:cx="245.66929"
     inkscape:cy="245.66929"
     inkscape:document-units="mm"
     inkscape:current-layer="layer1"
     inkscape:document-rotation="0"
     showgrid="false"
     inkscape:pagecheckerboard="true"
     inkscape:window-width="1920"
     inkscape:window-height="1001"
     inkscape:window-x="-9"
     inkscape:window-y="-9"
     inkscape:window-maximized="1" />
  <metadata
     id="metadata2007">
    <rdf:RDF>
      <cc:Work
         rdf:about="">
        <dc:format>image/svg+xml</dc:format>
        <dc:type
           rdf:resource="http://purl.org/dc/dcmitype/StillImage" />
        <dc:title></dc:title>
      </cc:Work>
    </rdf:RDF>
  </metadata>
  <g
     inkscape:label="Calque 1"
     inkscape:groupmode="layer"
     id="layer1">
    <path
       style="fill:#ff0000;stroke:#ff0000;stroke-width:0.414272px;stroke-linecap:butt;stroke-linejoin:miter;stroke-opacity:1"
       d="M 62.299063,118.00496 C 51.047312,119.23512 37.775981,114.74099 30.514696,106.06885 22.995965,97.089246 20.494788,83.070985 20.749583,71.367999 20.93106,63.032587 29.75187,47.150145 29.75187,47.150145 c 0,0 7.378625,14.646357 12.713745,12.190076 6.630921,-3.052867 -1.271374,-21.840555 -1.271374,-21.840555 0,0 11.372863,1.503071 16.181248,6.397057 1.974196,2.009342 1.309211,1.321885 1.347476,1.272547 0.03575,-0.04609 1.092453,1.441494 2.888934,0.844796 2.949258,-0.979592 2.926386,-1.76686 3.725672,-2.589252 1.357611,-1.396855 2.027848,-3.200974 1.451805,-8.442098 -0.31402,-2.857111 3.948698,-10.663 3.921529,-15.019853 -0.0444,-7.120291 -2.92637,-14.2939174 -2.92637,-14.2939174 0,0 12.818591,13.8347354 17.653548,24.2119244 3.225507,6.922854 -5.460162,14.022968 0.254273,20.824713 3.049514,3.629758 8.899622,-7.364838 8.899622,-7.364838 0,0 2.610215,10.546921 0.477058,18.530681 -1.557957,5.830963 -8.968044,9.228251 -5.30828,11.436587 5.440968,3.283129 15.256494,-11.428195 15.256494,-11.428195 0,0 2.60761,21.362733 -2.54275,29.967278 -8.202783,13.704144 -24.284263,24.420484 -40.175437,26.157864 z"
       id="path2573"
       sodipodi:nodetypes="ssscscsssssscsscsscss" />
  </g>
</svg>
