<?xml version="1.0" encoding="UTF-8" standalone="no"?>
<svg
   xmlns:dc="http://purl.org/dc/elements/1.1/"
   xmlns:cc="http://creativecommons.org/ns#"
   xmlns:rdf="http://www.w3.org/1999/02/22-rdf-syntax-ns#"
   xmlns:svg="http://www.w3.org/2000/svg"
   xmlns="http://www.w3.org/2000/svg"
   xmlns:sodipodi="http://sodipodi.sourceforge.net/DTD/sodipodi-0.dtd"
   xmlns:inkscape="http://www.inkscape.org/namespaces/inkscape"
   width="130mm"
   height="130mm"
   viewBox="0 0 130 130"
   version="1.1"
   id="svg950"
   inkscape:version="1.0.2-2 (e86c870879, 2021-01-15)"
   sodipodi:docname="28.svg">
  <defs
     id="defs944">
    <inkscape:path-effect
       effect="spiro"
       id="path-effect1446"
       is_visible="true"
       lpeversion="1" />
  </defs>
  <sodipodi:namedview
     id="base"
     pagecolor="#ffffff"
     bordercolor="#666666"
     borderopacity="1.0"
     inkscape:pageopacity="0.0"
     inkscape:pageshadow="2"
     inkscape:zoom="1.6302404"
     inkscape:cx="245.66929"
     inkscape:cy="245.66929"
     inkscape:document-units="mm"
     inkscape:current-layer="layer1"
     inkscape:document-rotation="0"
     showgrid="false"
     inkscape:pagecheckerboard="true"
     inkscape:window-width="1920"
     inkscape:window-height="1001"
     inkscape:window-x="-9"
     inkscape:window-y="-9"
     inkscape:window-maximized="1" />
  <metadata
     id="metadata947">
    <rdf:RDF>
      <cc:Work
         rdf:about="">
        <dc:format>image/svg+xml</dc:format>
        <dc:type
           rdf:resource="http://purl.org/dc/dcmitype/StillImage" />
        <dc:title></dc:title>
      </cc:Work>
    </rdf:RDF>
  </metadata>
  <g
     inkscape:label="Calque 1"
     inkscape:groupmode="layer"
     id="layer1">
    <path
       style="fill:#008000;fill-opacity:0;stroke:#008000;stroke-width:5.89596;stroke-linecap:round;stroke-linejoin:round;stroke-miterlimit:4;stroke-dasharray:none;stroke-opacity:1"
       d="m 10.346881,120.75514 c -1.3072383,-4.10785 -0.7834176,-8.76205 1.404213,-12.47656 2.18763,-3.71451 6.003911,-6.42964 10.230351,-7.27848 3.855404,-0.77432 7.830107,-0.0509 11.758541,0.12554 1.964217,0.0882 3.950237,0.0366 5.866341,-0.40441 1.916105,-0.44099 3.768418,-1.29027 5.194888,-2.643455 1.611347,-1.528564 2.599936,-3.622089 3.132361,-5.778352 0.532425,-2.156263 0.639753,-4.392219 0.711892,-6.612071 0.07214,-2.219852 0.112619,-4.452151 0.516757,-6.636097 0.404139,-2.183945 1.19582,-4.341126 2.615674,-6.049037 1.401935,-1.686356 3.34938,-2.852483 5.401773,-3.62508 2.052392,-0.772597 4.222079,-1.177062 6.382627,-1.552897 2.160548,-0.375835 4.334972,-0.729013 6.420852,-1.40601 2.08588,-0.676996 4.098975,-1.698871 5.650512,-3.248695 1.608907,-1.60713 2.648274,-3.707864 3.338126,-5.874787 0.689852,-2.166922 1.054496,-4.421033 1.491633,-6.652705 0.437137,-2.231672 0.95573,-4.469439 1.927657,-6.525359 0.971927,-2.05592 2.436224,-3.937414 4.411913,-5.063515 1.5688,-0.894183 3.386958,-1.274176 5.190016,-1.372546 1.803059,-0.09837 3.608411,0.07192 5.408747,0.211524 1.800336,0.139601 3.615495,0.248338 5.407735,0.0279 1.79223,-0.220439 3.57616,-0.789186 5.00951,-1.887464 1.67455,-1.2831 2.76718,-3.214023 3.35889,-5.238958 0.5917,-2.024934 0.71964,-4.15486 0.75214,-6.264224 0.0325,-2.109365 -0.0264,-4.22575 0.20583,-6.322539 0.23227,-2.09679 0.77248,-4.19816 1.9092,-5.975332 0.58703,-0.917772 1.32712,-1.737381 2.18044,-2.4146996"
       id="path1444"
       inkscape:path-effect="#path-effect1446"
       inkscape:original-d="m 10.346881,120.75514 c 3.878647,-6.58502 7.756832,-13.17007 11.634564,-19.75504 3.877736,-6.584994 15.213634,-1.948239 22.81977,-2.922325 7.606121,-0.974087 4.651576,-16.717061 6.976684,-25.075557 2.325108,-8.358488 15.904315,-6.555126 23.855764,-9.832682 7.951461,-3.277533 7.446687,-16.077622 11.169329,-24.116366 3.722657,-8.038788 14.011118,-2.01374 21.016008,-3.020587 7.00486,-1.006866 4.15116,-15.867392 6.22606,-23.801053 2.07491,-7.933677 1.45411,-1.609778 2.18044,-2.4146996" />
  </g>
</svg>
