<?xml version="1.0" encoding="UTF-8" standalone="no"?>
<svg
   xmlns:dc="http://purl.org/dc/elements/1.1/"
   xmlns:cc="http://creativecommons.org/ns#"
   xmlns:rdf="http://www.w3.org/1999/02/22-rdf-syntax-ns#"
   xmlns:svg="http://www.w3.org/2000/svg"
   xmlns="http://www.w3.org/2000/svg"
   xmlns:sodipodi="http://sodipodi.sourceforge.net/DTD/sodipodi-0.dtd"
   xmlns:inkscape="http://www.inkscape.org/namespaces/inkscape"
   viewBox="0 0 130 130"
   width="130"
   height="130"
   version="1.1"
   id="svg3236"
   sodipodi:docname="5.svg"
   inkscape:version="1.0.2-2 (e86c870879, 2021-01-15)">
  <metadata
     id="metadata3242">
    <rdf:RDF>
      <cc:Work
         rdf:about="">
        <dc:format>image/svg+xml</dc:format>
        <dc:type
           rdf:resource="http://purl.org/dc/dcmitype/StillImage" />
        <dc:title></dc:title>
      </cc:Work>
    </rdf:RDF>
  </metadata>
  <defs
     id="defs3240" />
  <sodipodi:namedview
     pagecolor="#ffffff"
     bordercolor="#666666"
     borderopacity="1"
     objecttolerance="10"
     gridtolerance="10"
     guidetolerance="10"
     inkscape:pageopacity="0"
     inkscape:pageshadow="2"
     inkscape:window-width="1920"
     inkscape:window-height="1001"
     id="namedview3238"
     showgrid="false"
     inkscape:pagecheckerboard="true"
     inkscape:zoom="6.1615385"
     inkscape:cx="65"
     inkscape:cy="65"
     inkscape:window-x="-9"
     inkscape:window-y="-9"
     inkscape:window-maximized="1"
     inkscape:current-layer="svg3236" />
  <g
     id="g3811"
     transform="matrix(2.6148564,0,0,2.4809613,1.8177279,3.9762796)">
    <path
       fill="#00acc1"
       d="M 44,24 C 44,35.044 35.044,44 24,44 12.956,44 4,35.044 4,24 4,12.956 12.956,4 24,4 35.044,4 44,12.956 44,24 Z"
       id="path3224" />
    <path
       fill="#eeeeee"
       d="M 40,24 C 40,32.838 32.838,40 24,40 15.162,40 8,32.838 8,24 8,15.162 15.163,8 24,8 c 8.837,0 16,7.163 16,16 z"
       id="path3226" />
    <path
       d="m 23,11 h 2 v 13 h -2 z"
       id="path3228" />
    <path
       d="m 26.082,22.654 h 2.337 v 9.192 h -2.337 z"
       transform="rotate(-45.001,27.25,27.25)"
       id="path3230" />
    <path
       d="m 27,24 c 0,1.657 -1.344,3 -3,3 -1.657,0 -3,-1.343 -3,-3 0,-1.657 1.343,-3 3,-3 1.656,0 3,1.343 3,3"
       id="path3232" />
    <path
       fill="#00acc1"
       d="m 25,24 c 0,0.551 -0.448,1 -1,1 -0.552,0 -1,-0.449 -1,-1 0,-0.553 0.448,-1 1,-1 0.552,0 1,0.447 1,1"
       id="path3234" />
  </g>
</svg>
