<?xml version="1.0" encoding="UTF-8" standalone="no"?>
<svg
   xmlns:dc="http://purl.org/dc/elements/1.1/"
   xmlns:cc="http://creativecommons.org/ns#"
   xmlns:rdf="http://www.w3.org/1999/02/22-rdf-syntax-ns#"
   xmlns:svg="http://www.w3.org/2000/svg"
   xmlns="http://www.w3.org/2000/svg"
   xmlns:sodipodi="http://sodipodi.sourceforge.net/DTD/sodipodi-0.dtd"
   xmlns:inkscape="http://www.inkscape.org/namespaces/inkscape"
   width="130mm"
   height="130mm"
   viewBox="0 0 130 130"
   version="1.1"
   id="svg843"
   inkscape:version="1.0.2-2 (e86c870879, 2021-01-15)"
   sodipodi:docname="logo 2 nb.svg">
  <defs
     id="defs837">
    <inkscape:path-effect
       effect="spiro"
       id="path-effect1446"
       is_visible="true"
       lpeversion="1" />
    <inkscape:path-effect
       effect="spiro"
       id="path-effect1442"
       is_visible="true"
       lpeversion="1" />
    <inkscape:path-effect
       effect="spiro"
       id="path-effect1438"
       is_visible="true"
       lpeversion="1" />
    <inkscape:path-effect
       effect="spiro"
       id="path-effect1434"
       is_visible="true"
       lpeversion="1" />
    <inkscape:path-effect
       effect="spiro"
       id="path-effect1430"
       is_visible="true"
       lpeversion="1" />
  </defs>
  <sodipodi:namedview
     id="base"
     pagecolor="#ffffff"
     bordercolor="#666666"
     borderopacity="1.0"
     inkscape:pageopacity="0.0"
     inkscape:pageshadow="2"
     inkscape:zoom="1.5746204"
     inkscape:cx="245.66929"
     inkscape:cy="244.44248"
     inkscape:document-units="mm"
     inkscape:current-layer="layer1"
     inkscape:document-rotation="0"
     showgrid="false"
     inkscape:pagecheckerboard="true"
     inkscape:window-width="1920"
     inkscape:window-height="1001"
     inkscape:window-x="-9"
     inkscape:window-y="-9"
     inkscape:window-maximized="1"
     inkscape:snap-global="false" />
  <metadata
     id="metadata840">
    <rdf:RDF>
      <cc:Work
         rdf:about="">
        <dc:format>image/svg+xml</dc:format>
        <dc:type
           rdf:resource="http://purl.org/dc/dcmitype/StillImage" />
        <dc:title />
      </cc:Work>
    </rdf:RDF>
  </metadata>
  <g
     inkscape:groupmode="layer"
     id="layer2"
     inkscape:label="fond" />
  <g
     inkscape:label="Calque 1"
     inkscape:groupmode="layer"
     id="layer1">
    <g
       id="g2370"
       transform="translate(7.5613461,5.2089273)">
      <rect
         style="fill:#892ca0;fill-rule:evenodd;stroke:#000000;stroke-width:1.949;stroke-miterlimit:4;stroke-dasharray:none;stroke-opacity:1"
         id="rect2307-9"
         width="88.719788"
         height="112.07595"
         x="-7.5548363"
         y="14.599977"
         ry="19.155411"
         transform="rotate(-13.801146)" />
      <rect
         style="fill:#ab37c8;fill-rule:evenodd;stroke:#000000;stroke-width:1.949;stroke-miterlimit:4;stroke-dasharray:none;stroke-opacity:1"
         id="rect2307-5"
         width="88.719788"
         height="112.07595"
         x="8.3110237"
         y="10.171753"
         ry="19.155411"
         transform="rotate(-5.692518)" />
      <rect
         style="fill:#cd87de;fill-rule:evenodd;stroke:#000000;stroke-width:1.949;stroke-miterlimit:4;stroke-dasharray:none;stroke-opacity:1"
         id="rect2307"
         width="88.719788"
         height="112.07595"
         x="19.537107"
         y="8.6905718"
         ry="19.155411"
         transform="rotate(-0.10843694)" />
      <path
         style="fill:#000000;fill-opacity:0;stroke:#000000;stroke-width:2.80552;stroke-linecap:round;stroke-linejoin:round;stroke-miterlimit:4;stroke-dasharray:none;stroke-opacity:1"
         d="m 27.550767,59.079016 c 0.961667,-1.71934 2.633247,-3.02711 4.533476,-3.54679 1.900228,-0.51968 4.004692,-0.244593 5.707496,0.74606 1.722096,1.001877 2.961007,2.637634 4.373572,4.042637 0.706282,0.702502 1.470913,1.358451 2.344976,1.836317 0.874064,0.477867 1.867093,0.771679 2.861718,0.716315 0.998253,-0.05557 1.952743,-0.458858 2.787588,-1.008976 0.834846,-0.550117 1.563297,-1.244573 2.278762,-1.942933 0.715465,-0.69836 1.42666,-1.407821 2.23594,-1.994901 0.80928,-0.58708 1.729215,-1.051753 2.718447,-1.196727 1.082993,-0.158715 2.195233,0.07458 3.205409,0.496013 1.010176,0.421437 1.932561,1.025022 2.839809,1.637365 0.907248,0.612344 1.810554,1.239677 2.796193,1.71568 0.98564,0.476004 2.067604,0.798189 3.161449,0.758595 1.037889,-0.03757 2.042026,-0.398819 2.95904,-0.886376 0.917014,-0.487556 1.75987,-1.100928 2.617673,-1.686419 0.857804,-0.58549 1.741238,-1.148877 2.710675,-1.52146 0.969437,-0.372582 2.038431,-0.54647 3.054763,-0.332706 0.895311,0.18831 1.707906,0.667234 2.414057,1.248949 0.706152,0.581715 1.318024,1.267379 1.941397,1.937042 0.623373,0.669663 1.266592,1.330753 2.019812,1.850081 0.75322,0.519328 1.629997,0.893464 2.54429,0.926773 0.947551,0.03452 1.881083,-0.299501 2.68588,-0.800847 0.804796,-0.501346 1.495191,-1.164493 2.156023,-1.844453 0.660832,-0.679961 1.301092,-1.384165 2.031641,-1.988601 0.730549,-0.604437 1.563659,-1.111155 2.486488,-1.328944 0.503519,-0.118831 1.027709,-0.149552 1.541659,-0.09035"
         id="path1444"
         inkscape:path-effect="#path-effect1446"
         inkscape:original-d="m 27.550767,59.079016 c 3.413837,-0.933429 6.827495,-1.867004 10.240972,-2.80073 3.413478,-0.933723 6.387024,4.396993 9.580266,6.595269 3.193241,2.198274 6.68067,-4.095544 10.020737,-6.143537 3.340066,-2.047993 8.002086,3.071916 12.00286,4.607653 4.000775,1.535737 7.561618,-2.951161 11.342151,-4.426961 3.780538,-1.4758 5.946549,3.975376 8.919556,5.962845 2.973015,1.987467 6.240205,-3.975083 9.360032,-5.962845 3.119839,-1.987762 1.027949,-0.06008 1.541659,-0.09035" />
      <path
         id="rect1448"
         style="fill:#000000;fill-rule:evenodd;stroke-width:0.264583"
         d="m 32.974801,65.394193 c -2.78729,0 -5.031219,2.243926 -5.031219,5.031219 0,2.78729 2.243929,5.031216 5.031219,5.031216 h 64.594507 c 2.787292,0 5.031222,-2.243926 5.031222,-5.031216 0,-2.787293 -2.24393,-5.031219 -5.031222,-5.031219 h -10.63656 l -2.391587,6.0911 -15.511198,-6.0911 z" />
      <rect
         style="fill:#000000;fill-rule:evenodd;stroke-width:0.238592"
         id="rect1453"
         width="78.551811"
         height="12.009987"
         x="26.969986"
         y="84.220741"
         ry="6.0049934" />
      <rect
         style="fill:#000000;fill-rule:evenodd;stroke-width:0.333597"
         id="rect1470"
         width="20.449436"
         height="4.3820224"
         x="30.540524"
         y="78.215752"
         ry="2.1910112" />
      <rect
         style="fill:#000000;fill-rule:evenodd;stroke-width:0.343168"
         id="rect1470-9"
         width="19.475653"
         height="4.8689137"
         x="78.823914"
         y="77.566566"
         ry="2.4344568" />
      <rect
         style="fill:#000000;fill-rule:evenodd;stroke-width:0.335991"
         id="rect1470-4"
         width="19.313356"
         height="4.7066169"
         x="55.777725"
         y="77.079666"
         ry="2.3533084" />
      <g
         id="g2285"
         transform="matrix(0.95887081,0,0,1,3.9359829,3.234477)">
        <path
           id="path1418"
           style="fill:#000000;fill-rule:evenodd;stroke-width:0.264583"
           d="m 44.266607,26.752887 c -12.06936,4.71887 -23.250161,11.893783 -19.587434,22.710759 -0.05779,0.06632 -0.115154,0.132815 -0.172083,0.199472 h 39.519034 39.519546 c 6.32952,-10.587395 -7.532551,-18.184659 -19.760029,-22.910231 -12.227251,-4.725548 -27.291784,-4.725548 -39.519034,0 z m 55.22179,12.685567 3.895013,9.899618 z"
           sodipodi:nodetypes="cccccccccc" />
        <ellipse
           style="fill:#ffffff;fill-opacity:1;fill-rule:evenodd;stroke-width:0.264583"
           id="path2102"
           cx="33.866665"
           cy="35.71875"
           rx="0.66145831"
           ry="0.39687499" />
        <ellipse
           style="fill:#ffffff;fill-opacity:1;fill-rule:evenodd;stroke-width:0.264583"
           id="path2102-5"
           cx="42.862499"
           cy="32.146877"
           rx="0.66145831"
           ry="0.39687499" />
        <ellipse
           style="fill:#ffffff;fill-opacity:1;fill-rule:evenodd;stroke-width:0.264583"
           id="path2102-7"
           cx="81.623962"
           cy="40.944271"
           rx="0.66145831"
           ry="0.39687499" />
        <ellipse
           style="fill:#ffffff;fill-opacity:1;fill-rule:evenodd;stroke-width:0.264583"
           id="path2102-1"
           cx="59.928123"
           cy="41.804169"
           rx="0.66145831"
           ry="0.39687499" />
        <ellipse
           style="fill:#ffffff;fill-opacity:1;fill-rule:evenodd;stroke-width:0.264583"
           id="path2102-6"
           cx="68.527084"
           cy="26.921354"
           rx="0.66145831"
           ry="0.39687499" />
        <ellipse
           style="fill:#ffffff;fill-opacity:1;fill-rule:evenodd;stroke-width:0.264583"
           id="path2102-0"
           cx="63.103123"
           cy="32.808334"
           rx="0.66145831"
           ry="0.39687499" />
        <ellipse
           style="fill:#ffffff;fill-opacity:1;fill-rule:evenodd;stroke-width:0.264583"
           id="path2102-3"
           cx="53.842709"
           cy="37.438541"
           rx="0.66145831"
           ry="0.39687499" />
        <ellipse
           style="fill:#ffffff;fill-opacity:1;fill-rule:evenodd;stroke-width:0.264583"
           id="path2102-4"
           cx="51.196877"
           cy="29.23646"
           rx="0.66145831"
           ry="0.39687499" />
        <ellipse
           style="fill:#ffffff;fill-opacity:1;fill-rule:evenodd;stroke-width:0.264583"
           id="path2102-46"
           cx="42.068748"
           cy="39.158333"
           rx="0.66145831"
           ry="0.39687499" />
        <ellipse
           style="fill:#ffffff;fill-opacity:1;fill-rule:evenodd;stroke-width:0.264583"
           id="path2102-8"
           cx="96.506775"
           cy="39.621353"
           rx="0.66145831"
           ry="0.39687499" />
        <ellipse
           style="fill:#ffffff;fill-opacity:1;fill-rule:evenodd;stroke-width:0.264583"
           id="path2102-15"
           cx="87.577087"
           cy="34.726562"
           rx="0.66145831"
           ry="0.39687499" />
        <ellipse
           style="fill:#ffffff;fill-opacity:1;fill-rule:evenodd;stroke-width:0.264583"
           id="path2102-43"
           cx="78.316666"
           cy="29.765625"
           rx="0.66145831"
           ry="0.39687499" />
        <ellipse
           style="fill:#ffffff;fill-opacity:1;fill-rule:evenodd;stroke-width:0.264583"
           id="path2102-40"
           cx="72.297401"
           cy="42.201042"
           rx="0.66145831"
           ry="0.39687499" />
        <ellipse
           style="fill:#ffffff;fill-opacity:1;fill-rule:evenodd;stroke-width:0.264583"
           id="path2102-45"
           cx="35.58646"
           cy="43.854691"
           rx="0.66145831"
           ry="0.39687499" />
        <ellipse
           style="fill:#ffffff;fill-opacity:1;fill-rule:evenodd;stroke-width:0.264583"
           id="path2102-2"
           cx="73.091148"
           cy="33.866669"
           rx="0.66145831"
           ry="0.39687499" />
        <ellipse
           style="fill:#ffffff;fill-opacity:1;fill-rule:evenodd;stroke-width:0.264583"
           id="path2102-9"
           cx="57.414585"
           cy="26.789064"
           rx="0.66145831"
           ry="0.39687499" />
      </g>
      <rect
         style="fill:#000000;fill-rule:evenodd;stroke-width:0.2235"
         id="rect2287"
         width="78.632957"
         height="6.6541872"
         x="26.969986"
         y="84.220741"
         ry="2.1098626" />
      <rect
         style="fill:#000000;fill-rule:evenodd;stroke-width:0.88435"
         id="rect2289"
         width="77.983772"
         height="5.7394776"
         x="26.867075"
         y="47.645008"
         ry="1.3451185" />
    </g>
  </g>
</svg>
