<?xml version="1.0" encoding="UTF-8" standalone="no"?>
<svg
   xmlns:dc="http://purl.org/dc/elements/1.1/"
   xmlns:cc="http://creativecommons.org/ns#"
   xmlns:rdf="http://www.w3.org/1999/02/22-rdf-syntax-ns#"
   xmlns:svg="http://www.w3.org/2000/svg"
   xmlns="http://www.w3.org/2000/svg"
   xmlns:sodipodi="http://sodipodi.sourceforge.net/DTD/sodipodi-0.dtd"
   xmlns:inkscape="http://www.inkscape.org/namespaces/inkscape"
   viewBox="0 0 130 130"
   width="130"
   height="130"
   version="1.1"
   id="svg186"
   sodipodi:docname="10.svg"
   inkscape:version="1.0.2-2 (e86c870879, 2021-01-15)">
  <metadata
     id="metadata192">
    <rdf:RDF>
      <cc:Work
         rdf:about="">
        <dc:format>image/svg+xml</dc:format>
        <dc:type
           rdf:resource="http://purl.org/dc/dcmitype/StillImage" />
        <dc:title></dc:title>
      </cc:Work>
    </rdf:RDF>
  </metadata>
  <defs
     id="defs190" />
  <sodipodi:namedview
     pagecolor="#ffffff"
     bordercolor="#666666"
     borderopacity="1"
     objecttolerance="10"
     gridtolerance="10"
     guidetolerance="10"
     inkscape:pageopacity="0"
     inkscape:pageshadow="2"
     inkscape:window-width="1920"
     inkscape:window-height="1001"
     id="namedview188"
     showgrid="false"
     inkscape:zoom="6.1615385"
     inkscape:cx="65"
     inkscape:cy="65"
     inkscape:window-x="-9"
     inkscape:window-y="-9"
     inkscape:window-maximized="1"
     inkscape:current-layer="svg186"
     inkscape:document-rotation="0"
     inkscape:pagecheckerboard="true" />
  <g
     id="g6757"
     transform="matrix(2.951623,0,0,2.97411,-7.8064919,-7.9063105)">
    <path
       fill="#ff6f02"
       d="M 31,7.002 44,8.688 33.296,19 Z M 17,41 4,39.314 14.704,29 Z"
       id="path182" />
    <path
       fill="#ff6f00"
       d="M 8,24 C 8,15.163 15.163,8 24,8 c 1.024,0 2.021,0.106 2.992,0.29 L 27.685,4.425 C 26.525,4.112 25.262,4.005 24,4.005 c -11.053,0 -20,8.947 -20,20 0,4.844 1.686,9.474 4.844,13.051 l 3.037,-2.629 C 9.468,31.625 8,27.987 8,24 Z M 39.473,11.267 36.33,13.804 C 38.622,16.572 40,20.125 40,24 c 0,8.837 -7.163,16 -16,16 -1.029,0 -2.033,-0.106 -3.008,-0.292 l -0.676,3.771 c 1.262,0.21 2.525,0.317 3.684,0.317 11.053,0 20,-8.947 20,-20 0,-4.421 -1.579,-8.948 -4.527,-12.529 z"
       id="path184" />
    <path
       style="fill:#ff0000;stroke-width:0.0578313"
       d="M 10.36598,40.115243 C 6.9226907,39.665812 4.1120883,39.283272 4.1201969,39.265154 c 0.00811,-0.01812 0.8370768,-0.82525 1.8421515,-1.793627 L 7.7897571,35.710843 7.4042482,35.13253 C 5.8518481,32.803729 4.8558722,30.361784 4.3686932,27.68992 4.1057314,26.247744 4.0338144,25.28375 4.0653702,23.624096 4.1121582,21.163324 4.4615264,19.263915 5.2726944,17.060241 5.6233489,16.107629 6.5065653,14.304441 7.0386237,13.454893 10.396414,8.0934441 16.066507,4.6341852 22.368495,4.1023144 23.409268,4.014476 25.599124,4.0626682 26.4,4.1910358 c 0.55708,0.089291 1.171773,0.2289304 1.219987,0.2771433 0.01981,0.019807 -0.586636,3.5462467 -0.639325,3.7176466 -0.01246,0.040538 -0.245088,0.026272 -0.704453,-0.043201 C 24.770207,7.9148625 22.73459,7.9459904 21.195181,8.2203223 14.571145,9.4007649 9.4007649,14.571145 8.2203223,21.195181 c -0.253502,1.422523 -0.3056253,3.437327 -0.1249246,4.828915 0.2298121,1.769799 0.7695418,3.520263 1.5881186,5.150624 0.2850855,0.567805 0.8688777,1.583217 0.9908467,1.723415 0.01006,0.01156 0.910115,-0.839439 2.000121,-1.89112 1.090006,-1.051681 1.991666,-1.90231 2.003689,-1.890288 0.02057,0.02057 2.264556,11.691505 2.265817,11.784478 3.47e-4,0.02386 -0.07098,0.04063 -0.158448,0.03728 -0.08747,-0.0034 -2.976273,-0.373811 -6.419562,-0.823242 z"
       id="path194" />
    <path
       style="fill:#ff0000;stroke-width:0.0578313"
       d="m 22.525301,43.714504 c -0.838573,-0.06262 -2.106822,-0.229885 -2.139099,-0.282111 -0.01915,-0.03099 0.59677,-3.634901 0.629325,-3.682331 0.0034,-0.0049 0.20134,0.02498 0.439895,0.06647 1.403067,0.244062 3.437844,0.256402 4.936998,0.02994 4.936661,-0.745728 9.221997,-3.731948 11.653726,-8.120854 0.889894,-1.606124 1.509723,-3.443605 1.809042,-5.362892 0.172526,-1.106263 0.187652,-3.453734 0.0292,-4.531407 -0.282705,-1.922741 -0.871944,-3.749689 -1.725324,-5.349397 -0.234746,-0.440045 -0.74014,-1.277831 -0.832306,-1.379707 -0.01028,-0.01137 -0.911568,0.840612 -2.00285,1.893289 -1.778789,1.715863 -1.988446,1.900562 -2.025669,1.784525 -0.07967,-0.248358 -2.248516,-11.6803605 -2.221155,-11.7077216 0.03826,-0.03826 12.820877,1.6219727 12.802684,1.6628395 -0.0081,0.018171 -0.821455,0.8105489 -1.807479,1.7608391 -0.986024,0.95029 -1.800949,1.747524 -1.810945,1.771631 -0.01,0.02411 0.135345,0.273032 0.32298,0.553165 1.846823,2.757251 2.971779,5.907578 3.307544,9.262448 0.0781,0.780336 0.07668,2.605229 -0.0027,3.497173 -0.344692,3.872065 -1.851195,7.616127 -4.308894,10.708748 -0.672904,0.846742 -2.377519,2.535409 -3.204346,3.174367 -1.160514,0.896825 -2.27797,1.60618 -3.479504,2.208772 -3.15225,1.580913 -6.835696,2.306233 -10.371099,2.042208 z"
       id="path196" />
  </g>
</svg>
