<?xml version="1.0" encoding="UTF-8" standalone="no"?>
<svg
   xmlns:dc="http://purl.org/dc/elements/1.1/"
   xmlns:cc="http://creativecommons.org/ns#"
   xmlns:rdf="http://www.w3.org/1999/02/22-rdf-syntax-ns#"
   xmlns:svg="http://www.w3.org/2000/svg"
   xmlns="http://www.w3.org/2000/svg"
   xmlns:sodipodi="http://sodipodi.sourceforge.net/DTD/sodipodi-0.dtd"
   xmlns:inkscape="http://www.inkscape.org/namespaces/inkscape"
   viewBox="0 0 130 130"
   width="130"
   height="130"
   version="1.1"
   id="svg6775"
   sodipodi:docname="11.svg"
   inkscape:version="1.0.2-2 (e86c870879, 2021-01-15)">
  <metadata
     id="metadata6781">
    <rdf:RDF>
      <cc:Work
         rdf:about="">
        <dc:format>image/svg+xml</dc:format>
        <dc:type
           rdf:resource="http://purl.org/dc/dcmitype/StillImage" />
        <dc:title></dc:title>
      </cc:Work>
    </rdf:RDF>
  </metadata>
  <defs
     id="defs6779" />
  <sodipodi:namedview
     pagecolor="#ffffff"
     bordercolor="#666666"
     borderopacity="1"
     objecttolerance="10"
     gridtolerance="10"
     guidetolerance="10"
     inkscape:pageopacity="0"
     inkscape:pageshadow="2"
     inkscape:window-width="1920"
     inkscape:window-height="1001"
     id="namedview6777"
     showgrid="false"
     inkscape:pagecheckerboard="true"
     inkscape:zoom="6.1615385"
     inkscape:cx="65"
     inkscape:cy="65"
     inkscape:window-x="-9"
     inkscape:window-y="-9"
     inkscape:window-maximized="1"
     inkscape:current-layer="svg6775" />
  <g
     id="g7346"
     transform="matrix(2.9921973,0,0,2.9719101,-7.968789,-7.8876404)">
    <path
       fill="#d50000"
       d="m 5.7,22 h 36.8 v 4 H 5.7 Z"
       transform="rotate(-45.001,24.036,24.037)"
       id="path6771" />
    <path
       fill="#d50000"
       d="M 24,4 C 13,4 4,13 4,24 4,35 13,44 24,44 35,44 44,35 44,24 44,13 35,4 24,4 Z m 0,36 C 15.2,40 8,32.8 8,24 8,15.2 15.2,8 24,8 c 8.8,0 16,7.2 16,16 0,8.8 -7.2,16 -16,16 z"
       id="path6773" />
  </g>
</svg>
