<?xml version="1.0" encoding="UTF-8" standalone="no"?>
<svg
   xmlns:dc="http://purl.org/dc/elements/1.1/"
   xmlns:cc="http://creativecommons.org/ns#"
   xmlns:rdf="http://www.w3.org/1999/02/22-rdf-syntax-ns#"
   xmlns:svg="http://www.w3.org/2000/svg"
   xmlns="http://www.w3.org/2000/svg"
   xmlns:sodipodi="http://sodipodi.sourceforge.net/DTD/sodipodi-0.dtd"
   xmlns:inkscape="http://www.inkscape.org/namespaces/inkscape"
   width="130mm"
   height="130mm"
   viewBox="0 0 130 130"
   version="1.1"
   id="svg218"
   inkscape:version="1.0.2-2 (e86c870879, 2021-01-15)"
   sodipodi:docname="13.svg">
  <defs
     id="defs212" />
  <sodipodi:namedview
     id="base"
     pagecolor="#ffffff"
     bordercolor="#666666"
     borderopacity="1.0"
     inkscape:pageopacity="0.0"
     inkscape:pageshadow="2"
     inkscape:zoom="0.68922779"
     inkscape:cx="396.85039"
     inkscape:cy="558.45705"
     inkscape:document-units="mm"
     inkscape:current-layer="layer1"
     inkscape:document-rotation="0"
     showgrid="false"
     inkscape:window-width="1920"
     inkscape:window-height="1001"
     inkscape:window-x="-9"
     inkscape:window-y="-9"
     inkscape:window-maximized="1"
     inkscape:pagecheckerboard="true" />
  <metadata
     id="metadata215">
    <rdf:RDF>
      <cc:Work
         rdf:about="">
        <dc:format>image/svg+xml</dc:format>
        <dc:type
           rdf:resource="http://purl.org/dc/dcmitype/StillImage" />
        <dc:title></dc:title>
      </cc:Work>
    </rdf:RDF>
  </metadata>
  <g
     inkscape:label="Calque 1"
     inkscape:groupmode="layer"
     id="layer1">
    <path
       sodipodi:type="star"
       style="fill:#ff0000;stroke-width:0.264583"
       id="path220"
       sodipodi:sides="6"
       sodipodi:cx="101.9663"
       sodipodi:cy="133.11237"
       sodipodi:r1="106.35951"
       sodipodi:r2="56.689617"
       sodipodi:arg1="0.42778154"
       sodipodi:arg2="0.95138032"
       inkscape:flatsided="false"
       inkscape:rounded="0.31"
       inkscape:randomized="-0.035"
       d="m 200.96039,177.29206 c -9.05604,17.32492 -53.13049,-12.25554 -68.95251,-0.46742 -15.82203,11.78811 0.58959,60.84272 -19.25413,63.80403 C 92.910037,243.58998 97.37991,190.80144 79.086963,182.54289 60.794016,174.28434 23.731021,208.80769 11.929925,192.69624 0.12882882,176.58479 46.224591,158.92897 44.110839,139.23482 41.997087,119.54067 0.14661075,110.20624 8.3946841,92.353111 16.642757,74.499978 53.077097,96.740226 69.9097,86.018547 86.742303,75.296868 69.696272,29.568412 89.033676,26.995239 c 19.337404,-2.573172 22.620294,43.993912 40.131284,52.79627 17.511,8.802357 47.4368,-23.865844 59.30261,-8.436502 11.8658,15.429341 -34.05089,39.843263 -32.29573,59.528493 1.75515,19.68524 53.8446,29.08365 44.78855,46.40856 z"
       transform="matrix(0.60763277,0,0,0.57277646,2.4880787,-10.392234)" />
  </g>
</svg>
