<?xml version="1.0" encoding="UTF-8" standalone="no"?>
<svg
   xmlns:dc="http://purl.org/dc/elements/1.1/"
   xmlns:cc="http://creativecommons.org/ns#"
   xmlns:rdf="http://www.w3.org/1999/02/22-rdf-syntax-ns#"
   xmlns:svg="http://www.w3.org/2000/svg"
   xmlns="http://www.w3.org/2000/svg"
   xmlns:sodipodi="http://sodipodi.sourceforge.net/DTD/sodipodi-0.dtd"
   xmlns:inkscape="http://www.inkscape.org/namespaces/inkscape"
   viewBox="0 0 130 130"
   width="130"
   height="130"
   version="1.1"
   id="svg5009"
   sodipodi:docname="8.svg"
   inkscape:version="1.0.2-2 (e86c870879, 2021-01-15)">
  <metadata
     id="metadata5015">
    <rdf:RDF>
      <cc:Work
         rdf:about="">
        <dc:format>image/svg+xml</dc:format>
        <dc:type
           rdf:resource="http://purl.org/dc/dcmitype/StillImage" />
        <dc:title></dc:title>
      </cc:Work>
    </rdf:RDF>
  </metadata>
  <defs
     id="defs5013" />
  <sodipodi:namedview
     pagecolor="#ffffff"
     bordercolor="#666666"
     borderopacity="1"
     objecttolerance="10"
     gridtolerance="10"
     guidetolerance="10"
     inkscape:pageopacity="0"
     inkscape:pageshadow="2"
     inkscape:window-width="1920"
     inkscape:window-height="1001"
     id="namedview5011"
     showgrid="false"
     inkscape:pagecheckerboard="true"
     inkscape:zoom="6.1615385"
     inkscape:cx="65"
     inkscape:cy="65"
     inkscape:window-x="-9"
     inkscape:window-y="-9"
     inkscape:window-maximized="1"
     inkscape:current-layer="svg5009" />
  <g
     id="g5580"
     transform="matrix(2.6654598,0,0,2.6010392,-0.13346405,0.04386419)">
    <path
       fill="#e65100"
       d="m 25.6,34.4 c 0.1,-0.4 0.1,-0.9 0.1,-1.4 0,-0.5 0,-0.9 -0.1,-1.4 l 2.8,-2 c 0.3,-0.2 0.4,-0.6 0.2,-0.9 L 25.9,24.1 C 25.7,23.8 25.4,23.7 25.1,23.8 L 22,25.3 c -0.7,-0.6 -1.5,-1 -2.4,-1.4 l -0.3,-3.4 c 0,-0.3 -0.3,-0.6 -0.6,-0.6 h -5.3 c -0.3,0 -0.6,0.3 -0.6,0.6 L 12.4,24 c -0.9,0.3 -1.6,0.8 -2.4,1.4 L 6.9,24 C 6.6,23.9 6.2,24 6.1,24.3 l -2.7,4.6 c -0.2,0.3 -0.1,0.7 0.2,0.9 l 2.8,2 c -0.1,0.4 -0.1,0.9 -0.1,1.4 0,0.5 0,0.9 0.1,1.4 l -2.8,2 c -0.3,0.2 -0.4,0.6 -0.2,0.9 l 2.7,4.6 c 0.2,0.3 0.5,0.4 0.8,0.3 L 10,41 c 0.7,0.6 1.5,1 2.4,1.4 l 0.3,3.4 c 0,0.3 0.3,0.6 0.6,0.6 h 5.3 c 0.3,0 0.6,-0.3 0.6,-0.6 l 0.3,-3.4 c 0.9,-0.3 1.6,-0.8 2.4,-1.4 l 3.1,1.4 c 0.3,0.1 0.7,0 0.8,-0.3 l 2.7,-4.6 c 0.2,-0.3 0.1,-0.7 -0.2,-0.9 z M 16,38 c -2.8,0 -5,-2.2 -5,-5 0,-2.8 2.2,-5 5,-5 2.8,0 5,2.2 5,5 0,2.8 -2.2,5 -5,5 z"
       id="path5005" />
    <path
       fill="#ffa000"
       d="M 41.9,15.3 C 42,14.8 42,14.4 42,14 c 0,-0.4 0,-0.8 -0.1,-1.3 l 2.5,-1.8 c 0.3,-0.2 0.3,-0.5 0.2,-0.8 L 42.1,5.8 C 41.9,5.5 41.6,5.4 41.3,5.6 L 38.4,6.9 C 37.7,6.4 37,6 36.2,5.6 L 35.9,2.5 C 36,2.2 35.8,2 35.5,2 H 30.6 C 30.3,2 30,2.2 30,2.5 L 29.7,5.6 C 28.9,5.9 28.2,6.3 27.5,6.9 L 24.6,5.6 C 24.3,5.5 24,5.6 23.8,5.8 l -2.5,4.3 c -0.2,0.3 -0.1,0.6 0.2,0.8 l 2.5,1.8 c 0,0.5 0,0.9 0,1.3 0,0.4 0,0.8 0.1,1.3 l -2.5,1.8 c -0.3,0.2 -0.3,0.5 -0.2,0.8 l 2.5,4.3 c 0.2,0.3 0.5,0.4 0.8,0.2 l 2.9,-1.3 c 0.7,0.5 1.4,0.9 2.2,1.3 l 0.3,3.1 c 0,0.3 0.3,0.5 0.6,0.5 h 4.9 c 0.3,0 0.6,-0.2 0.6,-0.5 l 0.3,-3.1 c 0.8,-0.3 1.5,-0.7 2.2,-1.3 l 2.9,1.3 c 0.3,0.1 0.6,0 0.8,-0.2 l 2.5,-4.3 C 45.1,17.6 45,17.3 44.7,17.1 Z M 33,19 c -2.8,0 -5,-2.2 -5,-5 0,-2.8 2.2,-5 5,-5 2.8,0 5,2.2 5,5 0,2.8 -2.2,5 -5,5 z"
       id="path5007" />
  </g>
</svg>
